<svg width="44" height="44" viewBox="0 0 44 44" fill="none" xmlns="http://www.w3.org/2000/svg">
<path fill-rule="evenodd" clip-rule="evenodd" d="M35.6537 7.85675C39.9928 12.1959 39.9928 19.2311 35.6537 23.5702C31.9334 27.2905 26.2312 27.8211 21.9456 25.162L10.2113 37.7989L7.28017 35.0771L18.9801 22.4772C15.6289 18.1202 15.949 11.848 19.9402 7.85675C24.2793 3.51759 31.3145 3.51759 35.6537 7.85675ZM33.5585 9.95188C36.7406 13.1339 36.7406 18.2931 33.5585 21.4751C30.3765 24.6572 25.2174 24.6572 22.0353 21.4751C18.8533 18.2931 18.8533 13.1339 22.0353 9.95188C25.2174 6.76983 30.3765 6.76983 33.5585 9.95188Z" fill="#E0E0E0"/>
</svg>
