<svg width="39" height="40" viewBox="0 0 39 40" fill="none" xmlns="http://www.w3.org/2000/svg">
<path fill-rule="evenodd" clip-rule="evenodd" d="M12.0226 7.82098C13.3423 9.64674 15.6542 10.8571 18.2857 10.8571C20.9172 10.8571 23.2291 9.64673 24.5488 7.82097C24.6573 7.41632 24.7143 6.99759 24.7143 6.57143C24.7143 3.60612 21.9549 1 18.2857 1C14.6166 1 11.8571 3.60612 11.8571 6.57143C11.8571 6.99759 11.9141 7.41633 12.0226 7.82098ZM10.954 5.50776C11.5286 2.38427 14.5924 0 18.2857 0C21.9477 0 24.9909 2.34406 25.6023 5.42856C25.6207 5.33596 25.6369 5.24268 25.6508 5.14879C32.3754 6.39102 37.1429 9.50181 37.1429 13.1428C37.1429 17.8767 29.084 21.7143 19.1429 21.7143C9.20173 21.7143 1.14286 17.8767 1.14286 13.1428C1.14286 9.81327 5.12961 6.92711 10.954 5.50776ZM5.42857 13.1429C6.21755 13.1429 6.85714 12.5033 6.85714 11.7143C6.85714 10.9253 6.21755 10.2857 5.42857 10.2857C4.63959 10.2857 4 10.9253 4 11.7143C4 12.5033 4.63959 13.1429 5.42857 13.1429ZM33.4286 13.1429C34.2175 13.1429 34.8571 12.5033 34.8571 11.7143C34.8571 10.9253 34.2175 10.2857 33.4286 10.2857C32.6396 10.2857 32 10.9253 32 11.7143C32 12.5033 32.6396 13.1429 33.4286 13.1429ZM25.7143 16.2857C25.7143 17.0747 25.0747 17.7143 24.2857 17.7143C23.4967 17.7143 22.8571 17.0747 22.8571 16.2857C22.8571 15.4967 23.4967 14.8571 24.2857 14.8571C25.0747 14.8571 25.7143 15.4967 25.7143 16.2857ZM12.8571 17.7143C13.6461 17.7143 14.2857 17.0747 14.2857 16.2857C14.2857 15.4967 13.6461 14.8571 12.8571 14.8571C12.0682 14.8571 11.4286 15.4967 11.4286 16.2857C11.4286 17.0747 12.0682 17.7143 12.8571 17.7143ZM38.1709 31.8158L28.0693 21.7143L26.8572 22.9265L36.9587 33.028L38.1709 31.8158ZM0 31.8158L10.1015 21.7143L11.3137 22.9265L1.21218 33.028L0 31.8158ZM13.4286 24.5714L6.28571 36.9432L7.77033 37.8004L14.9132 25.4286L13.4286 24.5714ZM18.2857 40V25.7143H20V40H18.2857ZM31.4846 37.5146L24.3417 25.1429L22.8571 26L30 38.3718L31.4846 37.5146Z" fill="#E0E0E0"/>
</svg>
