<svg width="40" height="32" viewBox="0 0 40 32" fill="none" xmlns="http://www.w3.org/2000/svg">
<path fill-rule="evenodd" clip-rule="evenodd" d="M24.6387 0L27.2633 5.39266L26.6739 8.66682L24.6616 5.56138L24.242 4.91384L23.8224 5.56138L21.4456 9.22927L20.5503 8.40033L24.6387 0ZM27.4341 10.0885L28.005 6.91671L40 31.5627H23.1554L23.1926 31.6496L18.5522 31.6496C21.5986 29.647 22.2902 28.5256 22.378 26.9544C22.4238 25.4757 22.0597 24.746 20.7622 24.3093L17.1738 15.3381L20.0931 9.3398L21.2023 10.3668L21.6384 10.7706L21.9616 10.2719L24.242 6.75273L26.5224 10.2719L27.2101 11.3331L27.4341 10.0885ZM14.7551 11.984L14.7323 12.098L14.5071 13.2239L13.8362 12.2921L12.442 10.3557L11.0478 12.2921L10.7342 12.7276L10.3219 12.3841L8.78335 11.1019L0 31.6496L11.7702 31.6496C11.9062 29.6032 14.0911 27.8795 15.596 27.8239C17.1008 27.7682 20.7419 26.1967 19.4217 23.9981C19.4722 24.0064 19.5219 24.0148 19.5708 24.0233L14.7551 11.984ZM10.5498 11.2723L9.19363 10.1421L11.5963 4.52138L14.0703 10.309L13.9769 10.776L12.8478 9.2078L12.442 8.64424L12.0362 9.2078L10.5498 11.2723Z" fill="#E0E0E0"/>
</svg>
