<svg width="41" height="30" viewBox="0 0 41 30" fill="none" xmlns="http://www.w3.org/2000/svg">
<path fill-rule="evenodd" clip-rule="evenodd" d="M29.1141 1.04137C29.3896 1.02231 29.5975 0.783529 29.5784 0.508046C29.5593 0.232562 29.3206 0.0246918 29.0451 0.0437545C27.9087 0.12239 26.7634 0.318761 25.6514 0.598529C25.3836 0.665901 25.2211 0.93761 25.2885 1.20541C25.3559 1.47321 25.6276 1.63568 25.8954 1.56831C26.9584 1.30087 28.0448 1.11536 29.1141 1.04137ZM32.514 0.218939C32.2427 0.167508 31.9811 0.345756 31.9296 0.617067C31.8782 0.888378 32.0565 1.15001 32.3278 1.20144C33.3949 1.40374 34.3867 1.76936 35.2604 2.33035C35.4927 2.47956 35.8021 2.41215 35.9513 2.17979C36.1005 1.94743 36.0331 1.6381 35.8007 1.4889C34.8025 0.847892 33.6861 0.441115 32.514 0.218939ZM22.7829 2.60082C23.0381 2.49528 23.1594 2.20286 23.0539 1.94769C22.9483 1.69251 22.6559 1.5712 22.4007 1.67674C21.8591 1.90075 21.3377 2.13971 20.8429 2.38871C20.4279 2.5976 20.0237 2.82059 19.6304 3.05681C19.3937 3.19898 19.317 3.50615 19.4592 3.74288C19.6014 3.9796 19.9086 4.05625 20.1453 3.91407C20.5175 3.69053 20.8999 3.47956 21.2925 3.28196C21.7649 3.04422 22.2638 2.81552 22.7829 2.60082ZM38.2837 4.01661C38.1372 3.78256 37.8286 3.71165 37.5946 3.8582C37.3606 4.00476 37.2896 4.3133 37.4362 4.54734C37.7022 4.97216 37.9406 5.44355 38.1466 5.96558C38.3348 6.4426 38.4904 6.92192 38.6152 7.40226C38.6846 7.66954 38.9575 7.82993 39.2248 7.76051C39.4921 7.69109 39.6525 7.41815 39.5831 7.15088C39.4481 6.63133 39.28 6.11337 39.0768 5.59851C38.8495 5.02247 38.5839 4.49596 38.2837 4.01661ZM18.0043 5.4237C18.2179 5.24874 18.2493 4.93371 18.0743 4.72007C17.8994 4.50643 17.5843 4.47507 17.3707 4.65004C16.6558 5.23548 15.986 5.86859 15.3604 6.54187C15.1724 6.74416 15.184 7.06053 15.3863 7.2485C15.5886 7.43647 15.905 7.42486 16.093 7.22257C16.6891 6.58104 17.326 5.9792 18.0043 5.4237ZM14.4268 9.25888C14.5884 9.03492 14.5378 8.72241 14.3138 8.56087C14.0899 8.39932 13.7774 8.44992 13.6158 8.67388C13.0803 9.41626 12.5876 10.1911 12.1368 10.9912C12.0012 11.2318 12.0863 11.5367 12.3269 11.6723C12.5675 11.8078 12.8724 11.7227 13.008 11.4821C13.4414 10.7129 13.9142 9.96959 14.4268 9.25888ZM40.0098 10.3805C40.007 10.1043 39.7809 9.88273 39.5048 9.88549C39.2287 9.88825 39.0071 10.1143 39.0098 10.3905C39.0199 11.4023 38.9093 12.4093 38.6932 13.3991C38.6342 13.6689 38.8052 13.9354 39.075 13.9943C39.3447 14.0532 39.6112 13.8823 39.6701 13.6125C39.9013 12.554 40.0207 11.472 40.0098 10.3805ZM11.8305 13.8483C11.9411 13.5952 11.8256 13.3005 11.5725 13.1899C11.3195 13.0793 11.0247 13.1948 10.9141 13.4478C10.5482 14.2852 10.2225 15.1407 9.93616 16.0075C9.84953 16.2697 9.99187 16.5524 10.2541 16.6391C10.5163 16.7257 10.7991 16.5834 10.8857 16.3212C11.1627 15.4827 11.4774 14.6562 11.8305 13.8483ZM38.666 16.6899C38.7764 16.4368 38.6607 16.1421 38.4075 16.0318C38.1544 15.9214 37.8597 16.0371 37.7494 16.2903C37.3446 17.2187 36.8525 18.1172 36.2884 18.9732C36.1364 19.2037 36.2002 19.5138 36.4307 19.6658C36.6613 19.8177 36.9714 19.754 37.1234 19.5234C37.7172 18.6223 38.2371 17.6736 38.666 16.6899ZM12.0263 16.3025C11.7505 16.2902 11.5168 16.5038 11.5045 16.7797C11.4921 17.0555 11.7057 17.2892 11.9816 17.3015C12.3654 17.3187 12.7346 17.3677 13.0848 17.4515C13.4669 17.543 13.7834 17.6779 14.0444 17.8425C14.2779 17.9898 14.5867 17.9198 14.734 17.6863C14.8813 17.4527 14.8113 17.1439 14.5777 16.9966C14.2153 16.7681 13.7956 16.5934 13.3175 16.479C12.8987 16.3788 12.466 16.3222 12.0263 16.3025ZM9.70651 17.5193C9.97641 17.4609 10.1478 17.1948 10.0894 16.9249C10.031 16.655 9.76485 16.4835 9.49495 16.542C8.68279 16.7178 7.8749 16.9777 7.10535 17.2905C6.84953 17.3944 6.72643 17.6861 6.8304 17.9419C6.93437 18.1977 7.22604 18.3208 7.48186 18.2169C8.20557 17.9227 8.95817 17.6813 9.70651 17.5193ZM10.1658 18.8717C10.2293 18.6029 10.0628 18.3336 9.79407 18.2702C9.52532 18.2067 9.25602 18.3732 9.19259 18.6419C9.08751 19.0871 8.99222 19.5335 8.90662 19.9801C8.88241 20.1065 8.8538 20.2487 8.82288 20.4024C8.76254 20.7024 8.69344 21.046 8.6312 21.3997C8.58334 21.6717 8.76502 21.931 9.03698 21.9788C9.30894 22.0267 9.56821 21.845 9.61607 21.573C9.67657 21.2292 9.74041 20.9121 9.79914 20.6203L9.7992 20.6201C9.83099 20.4621 9.86129 20.3116 9.88875 20.1684C9.97171 19.7355 10.064 19.303 10.1658 18.8717ZM5.38274 19.259C5.6201 19.1179 5.69813 18.8111 5.55701 18.5737C5.4159 18.3364 5.10908 18.2584 4.87172 18.3995C4.4988 18.6212 4.14705 18.851 3.82269 19.084C3.45678 19.3468 3.12403 19.625 2.82176 19.9175C2.62332 20.1095 2.61811 20.4261 2.81014 20.6245C3.00216 20.823 3.3187 20.8282 3.51715 20.6361C3.78342 20.3785 4.07859 20.1314 4.40605 19.8962C4.70561 19.6811 5.03311 19.4669 5.38274 19.259ZM16.1288 19.2324C16.0655 18.9636 15.7963 18.797 15.5275 18.8603C15.2587 18.9235 15.0921 19.1927 15.1554 19.4615C15.3082 20.1109 15.281 20.8619 15.1071 21.6204C15.0453 21.8896 15.2135 22.1578 15.4826 22.2196C15.7518 22.2813 16.02 22.1131 16.0818 21.844C16.2806 20.9773 16.3251 20.0666 16.1288 19.2324ZM35.1447 22.0631C35.3308 21.8591 35.3163 21.5429 35.1123 21.3568C34.9083 21.1706 34.5921 21.1851 34.406 21.3891C34.0605 21.7678 33.7011 22.1324 33.3299 22.4814C32.9819 22.8086 32.62 23.1294 32.2457 23.4417C32.0337 23.6186 32.0052 23.9339 32.1821 24.1459C32.359 24.358 32.6743 24.3864 32.8864 24.2095C33.2757 23.8846 33.6524 23.5508 34.0149 23.21C34.4047 22.8435 34.782 22.4607 35.1447 22.0631ZM2.14639 22.4703C2.27442 22.2257 2.17987 21.9235 1.9352 21.7955C1.69053 21.6675 1.3884 21.762 1.26037 22.0067C0.856855 22.7778 0.580132 23.5951 0.391224 24.4395C0.330939 24.709 0.500527 24.9763 0.770008 25.0366C1.03949 25.0969 1.30682 24.9273 1.3671 24.6579C1.54065 23.8821 1.79065 23.1501 2.14639 22.4703ZM15.1059 24.2119C15.2521 23.9777 15.1808 23.6692 14.9466 23.523C14.7123 23.3768 14.4039 23.4481 14.2577 23.6823C14.0519 24.0119 13.8256 24.3048 13.589 24.5483C13.3603 24.7836 13.0464 25.0396 12.6869 25.2638C12.4526 25.4099 12.3811 25.7183 12.5272 25.9526C12.6733 26.1869 12.9817 26.2584 13.216 26.1123C13.6388 25.8487 14.017 25.5428 14.3062 25.2452C14.5986 24.9442 14.8676 24.5936 15.1059 24.2119ZM9.45807 24.2781C9.41886 24.0048 9.16548 23.815 8.89214 23.8542C8.61879 23.8934 8.42899 24.1468 8.46821 24.4201C8.54902 24.9834 8.728 25.5387 9.08416 25.9867C9.45864 26.4579 9.93311 26.7211 10.4456 26.8188C10.7169 26.8706 10.9787 26.6926 11.0305 26.4214C11.0822 26.1501 10.9043 25.8883 10.633 25.8366C10.3474 25.7821 10.0873 25.6417 9.86698 25.3645C9.65917 25.1031 9.52406 24.7381 9.45807 24.2781ZM30.4631 26.0011C30.6945 25.8504 30.7599 25.5407 30.6092 25.3093C30.4585 25.0779 30.1488 25.0125 29.9174 25.1632C29.1089 25.6898 28.2664 26.1689 27.4014 26.5861C27.1527 26.7061 27.0484 27.0049 27.1683 27.2537C27.2883 27.5024 27.5872 27.6067 27.8359 27.4868C28.7415 27.0499 29.6211 26.5496 30.4631 26.0011ZM17.1187 25.6615C16.9352 25.4551 16.6192 25.4365 16.4128 25.62C16.2064 25.8034 16.1878 26.1195 16.3713 26.3258C16.4159 26.376 16.4556 26.4382 16.4962 26.5211C16.5564 26.644 16.6603 26.7312 16.78 26.7731C16.7196 26.9084 16.7197 27.069 16.794 27.2102C16.8649 27.3449 16.9556 27.4857 17.0798 27.6192C17.5044 28.076 17.9911 28.4201 18.5146 28.6708C18.7636 28.7901 19.0622 28.6849 19.1815 28.4358C19.3008 28.1868 19.1956 27.8882 18.9466 27.7689C18.5287 27.5687 18.1459 27.2973 17.8122 26.9384C17.7621 26.8845 17.7195 26.8215 17.6789 26.7444C17.6176 26.628 17.5169 26.5457 17.4017 26.5054C17.4601 26.3747 17.4622 26.22 17.3944 26.0814C17.3279 25.9455 17.2414 25.7995 17.1187 25.6615ZM1.05211 27.0157C1.0694 26.7401 0.860006 26.5027 0.584406 26.4854C0.308805 26.4681 0.0713677 26.6775 0.054074 26.9531C0.0280811 27.3673 0.0131858 27.7851 0.00569654 28.2045C0.000766277 28.4806 0.220591 28.7084 0.49669 28.7133C0.772788 28.7183 1.00061 28.4984 1.00554 28.2223C1.01282 27.8145 1.02724 27.412 1.05211 27.0157ZM25.02 28.6012C25.2839 28.5197 25.4317 28.2397 25.3501 27.9759C25.2686 27.712 24.9886 27.5642 24.7248 27.6458C24.2644 27.788 23.8016 27.9101 23.3377 28.0103C22.8472 28.1162 22.3372 28.1936 21.827 28.2264C21.5514 28.2441 21.3424 28.4818 21.3601 28.7574C21.3777 29.0329 21.6155 29.242 21.8911 29.2243C22.4583 29.1879 23.0179 29.1024 23.5488 28.9877C24.0423 28.8812 24.5333 28.7516 25.02 28.6012ZM21.2895 22.1628L35.2314 8.22084L33.0631 6.05255L19.1212 19.9945L18.1174 23.2806L21.2895 22.1628Z" fill="#E0E0E0"/>
</svg>
