<svg width="31" height="42" viewBox="0 0 31 42" fill="none" xmlns="http://www.w3.org/2000/svg">
<path fill-rule="evenodd" clip-rule="evenodd" d="M1 1C12.7768 5.82631 19.0549 5.50686 29.8312 1V24.8961C27.4315 33.848 24.4978 37.3263 16.7143 41C8.00211 37.306 4.53338 33.8025 1 24.8961V1ZM11.7792 14.3766C11.7792 15.8111 10.6163 16.974 9.18182 16.974C7.74731 16.974 6.58442 15.8111 6.58442 14.3766C6.58442 12.9421 7.74731 11.7792 9.18182 11.7792C10.6163 11.7792 11.7792 12.9421 11.7792 14.3766ZM21.3896 16.974C22.8241 16.974 23.987 15.8111 23.987 14.3766C23.987 12.9421 22.8241 11.7792 21.3896 11.7792C19.9551 11.7792 18.7922 12.9421 18.7922 14.3766C18.7922 15.8111 19.9551 16.974 21.3896 16.974ZM9.18182 22.6883C14.1684 23.6912 16.8267 23.6248 21.3896 22.6883V27.6537C20.3735 29.5139 19.1313 30.2366 15.8356 31C12.1467 30.2324 10.6779 29.5044 9.18182 27.6537V22.6883Z" fill="#E0E0E0"/>
<path d="M29.8312 1H30.3312V0.248923L29.6383 0.538717L29.8312 1ZM1 1L1.1896 0.537344L0.5 0.254733V1H1ZM29.8312 24.8961L30.3141 25.0256L30.3312 24.962V24.8961H29.8312ZM16.7143 41L16.5191 41.4603L16.7252 41.5477L16.9277 41.4522L16.7143 41ZM1 24.8961H0.5V24.9917L0.535239 25.0805L1 24.8961ZM21.3896 22.6883H21.8896V22.0753L21.2891 22.1985L21.3896 22.6883ZM9.18182 22.6883L9.2804 22.1981L8.68182 22.0777V22.6883H9.18182ZM21.3896 27.6537L21.8284 27.8934L21.8896 27.7814V27.6537H21.3896ZM15.8356 31L15.7338 31.4895L15.8414 31.5119L15.9484 31.4871L15.8356 31ZM9.18182 27.6537H8.68182V27.8306L8.79298 27.9681L9.18182 27.6537ZM29.6383 0.538717C24.2752 2.78165 20.0811 3.96088 15.7862 3.99996C11.4915 4.03904 7.0481 2.93825 1.1896 0.537344L0.810396 1.46266C6.72866 3.88806 11.3128 5.0407 15.7953 4.99992C20.2779 4.95913 24.6109 3.72521 30.0241 1.46128L29.6383 0.538717ZM30.3312 24.8961V1H29.3312V24.8961H30.3312ZM16.9277 41.4522C20.85 39.6009 23.6048 37.7742 25.6784 35.2443C27.7501 32.7168 29.1066 29.5302 30.3141 25.0256L29.3482 24.7666C28.1561 29.2139 26.8459 32.2425 24.905 34.6104C22.9659 36.9761 20.3622 38.7254 16.5009 40.5478L16.9277 41.4522ZM0.535239 25.0805C2.31326 29.5622 4.09372 32.7339 6.5577 35.2524C9.02168 37.7709 12.1354 39.6016 16.5191 41.4603L16.9095 40.5397C12.581 38.7044 9.60427 36.9364 7.2725 34.553C4.94073 32.1697 3.22013 29.1364 1.46476 24.7117L0.535239 25.0805ZM0.5 1V24.8961H1.5V1H0.5ZM9.18182 17.474C10.8925 17.474 12.2792 16.0873 12.2792 14.3766H11.2792C11.2792 15.535 10.3402 16.474 9.18182 16.474V17.474ZM6.08442 14.3766C6.08442 16.0873 7.47117 17.474 9.18182 17.474V16.474C8.02345 16.474 7.08442 15.535 7.08442 14.3766H6.08442ZM9.18182 11.2792C7.47117 11.2792 6.08442 12.666 6.08442 14.3766H7.08442C7.08442 13.2183 8.02345 12.2792 9.18182 12.2792V11.2792ZM12.2792 14.3766C12.2792 12.666 10.8925 11.2792 9.18182 11.2792V12.2792C10.3402 12.2792 11.2792 13.2183 11.2792 14.3766H12.2792ZM23.487 14.3766C23.487 15.535 22.548 16.474 21.3896 16.474V17.474C23.1003 17.474 24.487 16.0873 24.487 14.3766H23.487ZM21.3896 12.2792C22.548 12.2792 23.487 13.2183 23.487 14.3766H24.487C24.487 12.666 23.1003 11.2792 21.3896 11.2792V12.2792ZM19.2922 14.3766C19.2922 13.2183 20.2312 12.2792 21.3896 12.2792V11.2792C19.679 11.2792 18.2922 12.666 18.2922 14.3766H19.2922ZM21.3896 16.474C20.2312 16.474 19.2922 15.535 19.2922 14.3766H18.2922C18.2922 16.0873 19.679 17.474 21.3896 17.474V16.474ZM21.2891 22.1985C16.7902 23.1219 14.1996 23.1874 9.2804 22.1981L9.08323 23.1785C14.1372 24.1949 16.8632 24.1277 21.4901 23.1781L21.2891 22.1985ZM21.8896 27.6537V22.6883H20.8896V27.6537H21.8896ZM15.9484 31.4871C17.606 31.1032 18.8045 30.7179 19.7243 30.1671C20.6654 29.6037 21.287 28.8846 21.8284 27.8934L20.9508 27.414C20.4761 28.283 19.9686 28.8554 19.2106 29.3092C18.4315 29.7757 17.361 30.1335 15.7228 30.5129L15.9484 31.4871ZM8.79298 27.9681C9.57675 28.9376 10.3714 29.6328 11.4622 30.18C12.5375 30.7193 13.8789 31.1036 15.7338 31.4895L15.9375 30.5105C14.1034 30.1288 12.866 29.7653 11.9106 29.2861C10.9708 28.8147 10.283 28.2206 9.57065 27.3394L8.79298 27.9681ZM8.68182 22.6883V27.6537H9.68182V22.6883H8.68182Z" fill="#E0E0E0"/>
</svg>
