<svg width="36" height="40" viewBox="0 0 36 40" fill="none" xmlns="http://www.w3.org/2000/svg">
<path fill-rule="evenodd" clip-rule="evenodd" d="M25.0701 10.3226C24.7424 14.2608 21.4422 17.3548 17.4194 17.3548C13.3965 17.3548 10.0963 14.2608 9.76866 10.3226H25.0701ZM24.0509 5.80645H10.7878C12.1198 3.52947 14.591 2 17.4194 2C20.2477 2 22.7189 3.52947 24.0509 5.80645ZM27.0756 10.3226C26.7436 15.3665 22.5473 19.3548 17.4194 19.3548C12.2915 19.3548 8.09509 15.3665 7.7631 10.3226L7.76157 10.2989C7.74855 10.0934 7.74194 9.8862 7.74194 9.67742C7.74194 8.30109 8.02925 6.99186 8.54718 5.80645C10.0405 2.38857 13.451 0 17.4194 0C21.3877 0 24.7982 2.38857 26.2915 5.80645C26.3066 5.84104 26.3216 5.87573 26.3363 5.91053C26.826 7.06832 27.0968 8.34125 27.0968 9.67742C27.0968 9.89421 27.0896 10.1093 27.0756 10.3226ZM13.2258 9.67742C14.1166 9.67742 14.8387 8.9553 14.8387 8.06452C14.8387 7.17373 14.1166 6.45161 13.2258 6.45161C12.335 6.45161 11.6129 7.17373 11.6129 8.06452C11.6129 8.9553 12.335 9.67742 13.2258 9.67742ZM21.6129 9.67742C22.5037 9.67742 23.2258 8.9553 23.2258 8.06452C23.2258 7.17373 22.5037 6.45161 21.6129 6.45161C20.7221 6.45161 20 7.17373 20 8.06452C20 8.9553 20.7221 9.67742 21.6129 9.67742ZM35.4792 40C35.4823 39.844 35.4839 39.6876 35.4839 39.5308C35.4839 38.3714 35.3979 37.2349 35.2328 36.129H0.251111C0.0859893 37.2349 0 38.3714 0 39.5308C0 39.6876 0.00157344 39.844 0.00470334 40H35.4792ZM32.1418 27.7419C33.0195 29.126 33.7468 30.6417 34.2962 32.2581H1.18762C1.73709 30.6417 2.46434 29.126 3.34209 27.7419H32.1418ZM17.7419 19.3548C21.9834 19.3548 25.8773 21.0474 28.9297 23.871H6.55417C9.60661 21.0474 13.5005 19.3548 17.7419 19.3548Z" fill="#E0E0E0"/>
</svg>
