<svg width="40" height="36" viewBox="0 0 40 36" fill="none" xmlns="http://www.w3.org/2000/svg">
<path fill-rule="evenodd" clip-rule="evenodd" d="M14.1298 14.5794C15.786 13.0433 16.8224 10.8483 16.8224 8.41121C16.8224 10.8483 17.8589 13.0433 19.5151 14.5794H14.1298ZM2.69263 14.5794C1.03646 13.0433 0 10.8483 0 8.41121C0 3.76583 3.76583 0 8.41121 0C13.0566 0 16.8224 3.76583 16.8224 8.41121C16.8224 3.76583 20.5883 0 25.2336 0C29.879 0 33.6449 3.76583 33.6449 8.41121C33.6449 10.8483 32.6084 13.0433 30.9522 14.5794H33.6449V20.5607L40 16.4486V33.6449L33.6449 29.3458V35.1402H0V14.5794H2.69263Z" fill="#E0E0E0"/>
</svg>
