<svg width="42" height="33" viewBox="0 0 42 33" fill="none" xmlns="http://www.w3.org/2000/svg">
<path fill-rule="evenodd" clip-rule="evenodd" d="M22.5919 2.75171C14.8121 5.48086 10.4312 5.33927 2.56971 1L1 18.9419C2.86875 25.8438 5.0475 28.6851 10.8551 31.988C16.5018 29.7025 18.7676 27.2692 21.0221 20.6936L22.0697 8.72028L26.6706 21.3612C30.1285 25.4602 32.51 26.701 37.5045 27.1052C40.6184 23.762 41.3872 21.3898 40.8355 16.2056L36.2155 3.51234C31.7976 7.82828 28.7767 9.12265 22.0741 8.66953L22.5919 2.75171ZM7.20236 13.4909C8.19857 13.578 9.08255 12.7756 9.17678 11.6985C9.27101 10.6214 8.53982 9.67763 7.54361 9.59047C6.5474 9.50332 5.66342 10.3058 5.56919 11.3829C5.47496 12.4599 6.20615 13.4037 7.20236 13.4909ZM17.6546 12.4402C17.5604 13.5173 16.6764 14.3198 15.6802 14.2326C14.684 14.1454 13.9528 13.2017 14.047 12.1246C14.1413 11.0475 15.0252 10.245 16.0214 10.3322C17.0176 10.4193 17.7488 11.3631 17.6546 12.4402ZM6.281 24.022C9.51128 23.5961 11.3617 23.7078 14.7588 24.7637L15.085 21.0355C14.1676 19.5551 13.1954 18.9192 10.684 18.1188C8.34512 18.4917 7.43499 18.9589 6.60718 20.2938L6.281 24.022ZM35.9304 11.6628C36.2077 12.4248 35.8612 13.2505 35.1564 13.507C34.4517 13.7635 33.6555 13.3538 33.3782 12.5918C33.1008 11.8298 33.4473 11.0041 34.1521 10.7476C34.8569 10.4911 35.653 10.9009 35.9304 11.6628ZM31.8704 23.1404C33.9311 21.827 35.2244 21.3164 37.8682 20.9574L36.9082 18.3198C35.8153 17.6043 34.953 17.4803 32.9922 17.7322C31.5206 18.727 31.05 19.3331 30.9104 20.5028L31.8704 23.1404ZM29.1587 15.69C29.8635 15.4335 30.21 14.6078 29.9327 13.8458C29.6553 13.0839 28.8592 12.6741 28.1544 12.9306C27.4496 13.1871 27.1031 14.0128 27.3804 14.7748C27.6578 15.5368 28.4539 15.9465 29.1587 15.69Z" fill="#E0E0E0"/>
<path d="M2.56971 1L2.81133 0.562256L2.13859 0.190924L2.07162 0.956422L2.56971 1ZM22.5919 2.75171L23.09 2.79529L23.1575 2.02341L22.4263 2.2799L22.5919 2.75171ZM1 18.9419L0.501903 18.8983L0.49416 18.9868L0.517378 19.0726L1 18.9419ZM10.8551 31.988L10.6079 32.4226L10.8183 32.5423L11.0427 32.4515L10.8551 31.988ZM21.0221 20.6936L21.4951 20.8558L21.5149 20.798L21.5202 20.7372L21.0221 20.6936ZM22.0697 8.72028L22.5395 8.54927L21.5716 8.6767L22.0697 8.72028ZM26.6706 21.3612L26.2007 21.5322L26.2311 21.6156L26.2884 21.6835L26.6706 21.3612ZM37.5045 27.1052L37.4642 27.6036L37.7054 27.6231L37.8704 27.446L37.5045 27.1052ZM40.8355 16.2056L41.3327 16.1526L41.3262 16.0919L41.3053 16.0345L40.8355 16.2056ZM36.2155 3.51234L36.6854 3.34133L36.4204 2.61323L35.8661 3.15468L36.2155 3.51234ZM22.0741 8.66953L21.576 8.62595L21.5316 9.13399L22.0404 9.16839L22.0741 8.66953ZM7.20236 13.4909L7.24594 12.9928L7.20236 13.4909ZM7.54361 9.59047L7.50003 10.0886H7.50003L7.54361 9.59047ZM15.6802 14.2326L15.6366 14.7307H15.6366L15.6802 14.2326ZM17.6546 12.4402L17.1565 12.3966L17.6546 12.4402ZM14.047 12.1246L13.5489 12.081L14.047 12.1246ZM14.7588 24.7637L14.6104 25.2412L15.2029 25.4253L15.2569 24.8073L14.7588 24.7637ZM6.281 24.022L5.7829 23.9784L5.7286 24.5992L6.34636 24.5177L6.281 24.022ZM15.085 21.0355L15.5831 21.0791L15.5976 20.9135L15.51 20.7721L15.085 21.0355ZM10.684 18.1188L10.8359 17.6424L10.7226 17.6063L10.6053 17.625L10.684 18.1188ZM6.60718 20.2938L6.18225 20.0303L6.11946 20.1315L6.10908 20.2502L6.60718 20.2938ZM35.1564 13.507L34.9854 13.0372V13.0372L35.1564 13.507ZM35.9304 11.6628L35.4605 11.8339L35.9304 11.6628ZM33.3782 12.5918L33.848 12.4208V12.4208L33.3782 12.5918ZM37.8682 20.9574L37.9354 21.4528L38.5502 21.3694L38.338 20.7864L37.8682 20.9574ZM31.8704 23.1404L31.4006 23.3114L31.6137 23.8969L32.1392 23.562L31.8704 23.1404ZM36.9082 18.3198L37.378 18.1488L37.3212 17.9926L37.1821 17.9015L36.9082 18.3198ZM32.9922 17.7322L32.9285 17.2363L32.8106 17.2514L32.7122 17.318L32.9922 17.7322ZM30.9104 20.5028L30.4139 20.4436L30.3998 20.5619L30.4406 20.6738L30.9104 20.5028ZM29.9327 13.8458L30.4025 13.6748V13.6748L29.9327 13.8458ZM29.1587 15.69L28.9877 15.2202L28.9877 15.2202L29.1587 15.69ZM28.1544 12.9306L28.3254 13.4005H28.3254L28.1544 12.9306ZM2.32809 1.43774C6.28813 3.62355 9.42114 4.7805 12.5728 5.02501C15.7242 5.26952 18.8411 4.59736 22.7574 3.22352L22.4263 2.2799C18.5629 3.63521 15.5994 4.25683 12.6501 4.02801C9.70097 3.7992 6.71277 2.71572 2.81133 0.562256L2.32809 1.43774ZM1.4981 18.9855L3.06781 1.04358L2.07162 0.956422L0.501903 18.8983L1.4981 18.9855ZM11.1023 31.5533C8.22724 29.9183 6.29559 28.4224 4.84905 26.5127C3.40075 24.6006 2.40975 22.2354 1.48262 18.8112L0.517378 19.0726C1.459 22.5503 2.49175 25.0567 4.05191 27.1165C5.61384 29.1786 7.67538 30.7548 10.6079 32.4226L11.1023 31.5533ZM20.5492 20.5315C19.4305 23.7943 18.3273 25.9719 16.8401 27.614C15.3571 29.2514 13.4564 30.3957 10.6675 31.5245L11.0427 32.4515C13.9005 31.2948 15.956 30.0798 17.5813 28.2853C19.2023 26.4954 20.3593 24.1686 21.4951 20.8558L20.5492 20.5315ZM21.5716 8.6767L20.524 20.6501L21.5202 20.7372L22.5678 8.76386L21.5716 8.6767ZM27.1404 21.1901L22.5395 8.54927L21.5998 8.89129L26.2007 21.5322L27.1404 21.1901ZM37.5449 26.6069C35.0806 26.4074 33.3124 26.0051 31.745 25.1767C30.1749 24.3469 28.7638 23.0671 27.0528 21.0388L26.2884 21.6835C28.0352 23.7543 29.5438 25.1444 31.2777 26.0608C33.0141 26.9786 34.934 27.3988 37.4642 27.6036L37.5449 26.6069ZM40.3383 16.2585C40.6114 18.8243 40.5499 20.6344 40.0669 22.1982C39.5857 23.7559 38.6702 25.1201 37.1386 26.7645L37.8704 27.446C39.4527 25.7472 40.4786 24.2536 41.0223 22.4933C41.5642 20.7391 41.6113 18.771 41.3327 16.1526L40.3383 16.2585ZM35.7457 3.68335L40.3656 16.3766L41.3053 16.0345L36.6854 3.34133L35.7457 3.68335ZM22.0404 9.16839C25.4253 9.39722 27.9372 9.18951 30.1775 8.34735C32.4175 7.50529 34.336 6.04748 36.5649 3.86999L35.8661 3.15468C33.6771 5.29313 31.8762 6.64048 29.8256 7.41131C27.7754 8.18204 25.4256 8.39496 22.1078 8.17067L22.0404 9.16839ZM22.0938 2.70813L21.576 8.62595L22.5722 8.71311L23.09 2.79529L22.0938 2.70813ZM8.67868 11.6549C8.60526 12.4942 7.93117 13.0527 7.24594 12.9928L7.15879 13.989C8.46598 14.1034 9.55984 13.0569 9.67488 11.7421L8.67868 11.6549ZM7.50003 10.0886C8.18526 10.1485 8.75211 10.8156 8.67868 11.6549L9.67488 11.7421C9.78991 10.4272 8.89437 9.20674 7.58718 9.09238L7.50003 10.0886ZM6.06729 11.4264C6.14072 10.5872 6.8148 10.0286 7.50003 10.0886L7.58718 9.09238C6.27999 8.97801 5.18613 10.0244 5.07109 11.3393L6.06729 11.4264ZM7.24594 12.9928C6.56071 12.9328 5.99386 12.2657 6.06729 11.4264L5.07109 11.3393C4.95606 12.6541 5.8516 13.8746 7.15879 13.989L7.24594 12.9928ZM15.6366 14.7307C16.9438 14.8451 18.0377 13.7986 18.1527 12.4838L17.1565 12.3966C17.0831 13.2359 16.409 13.7945 15.7238 13.7345L15.6366 14.7307ZM13.5489 12.081C13.4339 13.3959 14.3294 14.6163 15.6366 14.7307L15.7238 13.7345C15.0385 13.6746 14.4717 13.0075 14.5451 12.1682L13.5489 12.081ZM16.065 9.83409C14.7578 9.71973 13.664 10.7662 13.5489 12.081L14.5451 12.1682C14.6185 11.3289 15.2926 10.7703 15.9779 10.8303L16.065 9.83409ZM18.1527 12.4838C18.2677 11.1689 17.3722 9.94845 16.065 9.83409L15.9779 10.8303C16.6631 10.8902 17.2299 11.5573 17.1565 12.3966L18.1527 12.4838ZM14.9073 24.2862C13.1892 23.7522 11.8391 23.4496 10.4985 23.3389C9.15776 23.2281 7.84837 23.311 6.21564 23.5263L6.34636 24.5177C7.94392 24.3071 9.1749 24.2329 10.4162 24.3355C11.6577 24.438 12.9314 24.7193 14.6104 25.2412L14.9073 24.2862ZM14.5869 20.9919L14.2607 24.7201L15.2569 24.8073L15.5831 21.0791L14.5869 20.9919ZM10.5322 18.5952C11.7766 18.9918 12.5939 19.3342 13.2065 19.7392C13.805 20.1349 14.2302 20.6054 14.66 21.2989L15.51 20.7721C15.0224 19.9852 14.5029 19.3975 13.758 18.9051C13.0273 18.4219 12.1029 18.0462 10.8359 17.6424L10.5322 18.5952ZM7.0321 20.5573C7.41164 19.9453 7.7863 19.5664 8.31303 19.2874C8.86039 18.9974 9.60473 18.7972 10.7628 18.6125L10.6053 17.625C9.42442 17.8133 8.54424 18.0332 7.84486 18.4037C7.12484 18.7852 6.63053 19.3074 6.18225 20.0303L7.0321 20.5573ZM6.7791 24.0656L7.10527 20.3374L6.10908 20.2502L5.7829 23.9784L6.7791 24.0656ZM35.3274 13.9769C36.3256 13.6136 36.7592 12.4781 36.4002 11.4918L35.4605 11.8339C35.6562 12.3715 35.3969 12.8874 34.9854 13.0372L35.3274 13.9769ZM32.9083 12.7628C33.2673 13.7491 34.3293 14.3401 35.3274 13.9769L34.9854 13.0372C34.574 13.1869 34.0437 12.9585 33.848 12.4208L32.9083 12.7628ZM33.9811 10.2778C32.983 10.6411 32.5493 11.7765 32.9083 12.7628L33.848 12.4208C33.6523 11.8831 33.9117 11.3672 34.3231 11.2175L33.9811 10.2778ZM36.4002 11.4918C36.0413 10.5056 34.9792 9.91448 33.9811 10.2778L34.3231 11.2175C34.7345 11.0677 35.2648 11.2962 35.4605 11.8339L36.4002 11.4918ZM37.8009 20.4619C36.4588 20.6442 35.4354 20.868 34.4774 21.222C33.5192 21.576 32.647 22.0525 31.6017 22.7187L32.1392 23.562C33.1546 22.9149 33.9594 22.4794 34.8239 22.16C35.6886 21.8405 36.6338 21.6296 37.9354 21.4528L37.8009 20.4619ZM36.4383 18.4908L37.3983 21.1284L38.338 20.7864L37.378 18.1488L36.4383 18.4908ZM33.0559 18.2281C34.0245 18.1037 34.6748 18.0792 35.202 18.1578C35.7125 18.2338 36.1339 18.4105 36.6343 18.7381L37.1821 17.9015C36.5896 17.5137 36.0334 17.2706 35.3493 17.1687C34.682 17.0693 33.9207 17.1088 32.9285 17.2363L33.0559 18.2281ZM31.4069 20.5621C31.469 20.0419 31.5976 19.6882 31.8507 19.3534C32.1178 18.9999 32.546 18.6374 33.2722 18.1464L32.7122 17.318C31.9668 17.8219 31.4238 18.2597 31.0529 18.7504C30.6679 19.2598 30.4915 19.794 30.4139 20.4436L31.4069 20.5621ZM32.3403 22.9694L31.3803 20.3318L30.4406 20.6738L31.4006 23.3114L32.3403 22.9694ZM29.4628 14.0169C29.6585 14.5546 29.3991 15.0704 28.9877 15.2202L29.3297 16.1599C30.3279 15.7966 30.7615 14.6611 30.4025 13.6748L29.4628 14.0169ZM28.3254 13.4005C28.7368 13.2507 29.2671 13.4792 29.4628 14.0169L30.4025 13.6748C30.0435 12.6886 28.9815 12.0975 27.9834 12.4608L28.3254 13.4005ZM27.8503 14.6038C27.6546 14.0661 27.914 13.5502 28.3254 13.4005L27.9834 12.4608C26.9853 12.8241 26.5516 13.9595 26.9106 14.9458L27.8503 14.6038ZM28.9877 15.2202C28.5763 15.3699 28.046 15.1415 27.8503 14.6038L26.9106 14.9458C27.2696 15.9321 28.3316 16.5231 29.3297 16.1599L28.9877 15.2202Z" fill="#E0E0E0"/>
</svg>
