<svg width="40" height="30" viewBox="0 0 40 30" fill="none" xmlns="http://www.w3.org/2000/svg">
<path fill-rule="evenodd" clip-rule="evenodd" d="M14.8454 4.12371C14.8454 6.40117 12.9991 8.24742 10.7216 8.24742C8.44419 8.24742 6.59794 6.40117 6.59794 4.12371C6.59794 1.84625 8.44419 0 10.7216 0C12.9991 0 14.8454 1.84625 14.8454 4.12371ZM25.9794 29.2784C25.9794 25.8621 23.21 23.0928 19.7938 23.0928C16.3776 23.0928 13.6082 25.8621 13.6082 29.2784H25.9794ZM30.1031 10.3093C32.3806 10.3093 34.2268 8.46303 34.2268 6.18557C34.2268 3.9081 32.3806 2.06186 30.1031 2.06186C27.8256 2.06186 25.9794 3.9081 25.9794 6.18557C25.9794 8.46303 27.8256 10.3093 30.1031 10.3093ZM21.8557 20.2062C21.8557 21.3449 20.9325 22.268 19.7938 22.268C18.6551 22.268 17.732 21.3449 17.732 20.2062C17.732 19.0675 18.6551 18.1443 19.7938 18.1443C20.9325 18.1443 21.8557 19.0675 21.8557 20.2062ZM21.807 14.267C20.7366 15.1138 19.8317 16.1604 19.1485 17.3506C17.6484 17.5638 16.4948 18.8534 16.4948 20.4124C16.4948 21.1087 16.7249 21.7511 17.1131 22.268H0C0 15.4356 5.53875 9.89691 12.3711 9.89691C16.1526 9.89691 19.5378 11.5935 21.807 14.267ZM22.6804 20.4124C22.6804 21.0189 22.5059 21.5845 22.2043 22.0619H40C40 16.4821 35.4767 11.9588 29.8969 11.9588C25.9256 11.9588 22.4894 14.2502 20.8384 17.583C21.9234 18.0633 22.6804 19.1495 22.6804 20.4124Z" fill="#E0E0E0"/>
</svg>
