<svg width="34" height="40" viewBox="0 0 34 40" fill="none" xmlns="http://www.w3.org/2000/svg">
<path fill-rule="evenodd" clip-rule="evenodd" d="M33.3333 16.6667C33.3333 18.4893 33.0408 20.2437 32.5 21.8853V38.2776C29.7805 36.581 28.171 36.1242 24.7863 38.2776C22.1925 39.583 20.6066 40.0172 16.6667 38.2776L16.6052 38.2398C14.0454 36.6641 12.5917 35.7692 8.95299 38.2776C6.23403 40.3855 4.5346 40.7554 0.833333 38.2776V21.8853C0.292579 20.2437 0 18.4893 0 16.6667C0 7.46192 7.46192 0 16.6667 0C25.8714 0 33.3333 7.46192 33.3333 16.6667ZM10.8333 14.1667C12.214 14.1667 13.3333 13.0474 13.3333 11.6667C13.3333 10.286 12.214 9.16667 10.8333 9.16667C9.45262 9.16667 8.33333 10.286 8.33333 11.6667C8.33333 13.0474 9.45262 14.1667 10.8333 14.1667ZM16.6667 23.3333C18.0474 23.3333 19.1667 21.4679 19.1667 19.1667C19.1667 16.8655 18.0474 15 16.6667 15C15.286 15 14.1667 16.8655 14.1667 19.1667C14.1667 21.4679 15.286 23.3333 16.6667 23.3333ZM24.1667 11.6667C24.1667 13.0474 23.0474 14.1667 21.6667 14.1667C20.286 14.1667 19.1667 13.0474 19.1667 11.6667C19.1667 10.286 20.286 9.16667 21.6667 9.16667C23.0474 9.16667 24.1667 10.286 24.1667 11.6667Z" fill="#E0E0E0"/>
</svg>
