<svg width="39" height="40" viewBox="0 0 39 40" fill="none" xmlns="http://www.w3.org/2000/svg">
<path fill-rule="evenodd" clip-rule="evenodd" d="M19.4523 12.2979C19.4514 12.3012 19.4506 12.3044 19.4498 12.3077H19.4548C19.4539 12.3044 19.4531 12.3012 19.4523 12.2979ZM19.4523 7.39437C18.3626 3.14271 14.5052 0 9.9138 0C4.47592 0 0.0676457 4.40827 0.0676457 9.84615C0.0676457 10.6961 0.175345 11.5209 0.377843 12.3077H-3.8147e-06L0.682967 13.28C1.27675 14.8755 2.27237 16.2755 3.54683 17.357L19.4523 40L35.3577 17.357C36.6321 16.2755 37.6278 14.8755 38.2216 13.28L38.9045 12.3077H38.5267C38.7292 11.5209 38.8369 10.6961 38.8369 9.84615C38.8369 4.40827 34.4286 0 28.9907 0C24.3993 0 20.5419 3.14271 19.4523 7.39437Z" fill="#E0E0E0"/>
</svg>
