<svg width="33" height="42" viewBox="0 0 33 42" fill="none" xmlns="http://www.w3.org/2000/svg">
<path fill-rule="evenodd" clip-rule="evenodd" d="M27.4122 1.00001L19.2378 9.17443H22.6694C28.1922 9.17443 32.6694 13.6516 32.6694 19.1744V26.2433C32.6694 29.8056 30.8068 32.9328 28.0023 34.7042V37.8768C28.0023 39.81 26.4352 41.3771 24.502 41.3771C22.5689 41.3771 21.0017 39.81 21.0017 37.8768V36.2433H11.6676V37.8768C11.6676 39.81 10.1005 41.3771 8.16735 41.3771C6.23419 41.3771 4.66706 39.81 4.66706 37.8768V34.7042C1.86262 32.9328 0 29.8056 0 26.2433V19.1744C0 13.6516 4.47715 9.17443 10 9.17443H11.9667L4 1.20777L4.70711 0.500662L13.3809 9.17443H17.8236L26.7051 0.292908L27.4122 1.00001ZM11 13C8.23858 13 6 15.2386 6 18V23C6 25.7614 8.23858 28 11 28H22C24.7614 28 27 25.7614 27 23V18C27 15.2386 24.7614 13 22 13H11Z" fill="#E0E0E0"/>
</svg>
