<svg width="40" height="30" viewBox="0 0 40 30" fill="none" xmlns="http://www.w3.org/2000/svg">
<path fill-rule="evenodd" clip-rule="evenodd" d="M26.7134 7.05963L38.9411 0L40 1.83414L27.7848 8.8866C27.8504 9.11724 27.8855 9.36072 27.8855 9.61241C27.8855 11.0745 26.7003 12.2598 25.2382 12.2598H12.8838C11.4217 12.2598 10.2365 11.0745 10.2365 9.61241C10.2365 8.44184 10.9962 7.44871 12.0495 7.09921C12.0177 6.99732 12.0014 6.89365 12.0014 6.78856C12.0014 5.32646 15.1621 4.1412 19.061 4.1412C22.9599 4.1412 26.1206 5.32646 26.1206 6.78856C26.1206 6.89365 26.1043 6.99731 26.0725 7.09921C26.4641 7.22915 26.8151 7.44804 27.1016 7.73194L26.7134 7.05963ZM31.7683 18.708H5.29472C2.37053 18.708 0 21.0785 0 24.0027C0 26.9269 2.37053 29.2975 5.29472 29.2975L31.7683 29.2975V29.2859C31.885 29.2936 32.0027 29.2975 32.1213 29.2975C35.0455 29.2975 37.416 26.9269 37.416 24.0027C37.416 21.0785 35.0455 18.708 32.1213 18.708C32.0027 18.708 31.885 18.7119 31.7683 18.7196V18.708ZM30.7826 19.767H6.30704C3.60354 19.767 1.41193 21.6634 1.41193 24.0027C1.41193 26.3421 3.60354 28.2385 6.30704 28.2385H30.7826V28.2292C30.8905 28.2354 30.9993 28.2385 31.109 28.2385C33.8125 28.2385 36.0041 26.3421 36.0041 24.0027C36.0041 21.6634 33.8125 19.767 31.109 19.767C30.9993 19.767 30.8905 19.7701 30.7826 19.7762V19.767ZM34.9452 24.0027C34.9452 26.1471 33.2068 27.8855 31.0624 27.8855C28.9179 27.8855 27.1796 26.1471 27.1796 24.0027C27.1796 21.8583 28.9179 20.1199 31.0624 20.1199C33.2068 20.1199 34.9452 21.8583 34.9452 24.0027ZM14.4722 27.5325C16.4217 27.5325 18.002 25.9522 18.002 24.0027C18.002 22.0533 16.4217 20.4729 14.4722 20.4729C12.5228 20.4729 10.9424 22.0533 10.9424 24.0027C10.9424 25.9522 12.5228 27.5325 14.4722 27.5325ZM26.1206 24.0027C26.1206 25.9522 24.5403 27.5325 22.5908 27.5325C20.6413 27.5325 19.061 25.9522 19.061 24.0027C19.061 22.0533 20.6413 20.4729 22.5908 20.4729C24.5403 20.4729 26.1206 22.0533 26.1206 24.0027ZM6.35366 27.8855C8.49807 27.8855 10.2365 26.1471 10.2365 24.0027C10.2365 21.8583 8.49807 20.1199 6.35366 20.1199C4.20926 20.1199 2.47087 21.8583 2.47087 24.0027C2.47087 26.1471 4.20926 27.8855 6.35366 27.8855ZM28.5915 13.0603H8.82453L4.41227 18.002L33.7097 18.355L28.5915 13.0603Z" fill="#E0E0E0"/>
</svg>
