<svg width="39" height="40" viewBox="0 0 39 40" fill="none" xmlns="http://www.w3.org/2000/svg">
<path fill-rule="evenodd" clip-rule="evenodd" d="M24.1838 36.6291L25.6493 40H30.1927L32.2445 36.6291L32.382 35.6032H32.781L34.6926 35.6519L33.4359 37.179L35.1263 36.1525L34.8948 38.1166L35.7619 36.3391L36.629 38.1166L36.3975 36.1525L38.0879 37.179L36.8313 35.6519L38.8083 35.6015L36.9256 34.9962L38.5615 33.885L36.6504 34.3937L37.4259 32.5744L36.0931 34.0355L35.7619 32.0858L35.4307 34.0355L34.098 32.5744L34.8735 34.3937L32.9623 33.885L34.1973 34.7238H32.4998L36.3482 5.99817C29.7096 -1.52236 25.4142 -2.46261 15.9764 5.99817C16.3275 9.48432 16.8493 12.1103 17.3248 14.5032C17.9344 17.571 18.4679 20.2556 18.4679 23.8784C18.4679 27.3528 17.2165 30.7637 13.4848 30.9133L5.27752 32.8186C4.02398 33.2764 3.03647 33.2514 2.26398 33.2319C1.03137 33.2007 0.346226 33.1834 0.00139518 35.1635C-0.0488674 37.0599 1.24149 38.0049 2.47835 38.9106C2.95802 39.2619 3.42965 39.6073 3.81192 40H13.4848C16.5626 40 20.6446 38.8817 24.1838 36.6291Z" fill="#E0E0E0"/>
</svg>
